<?xml version="1.0" standalone="no"?>
<!DOCTYPE svg PUBLIC "-//W3C//DTD SVG 20010904//EN"
 "http://www.w3.org/TR/2001/REC-SVG-20010904/DTD/svg10.dtd">
<svg version="1.0" xmlns="http://www.w3.org/2000/svg"
 width="719.000000pt" height="719.000000pt" viewBox="0 0 719.000000 719.000000"
 preserveAspectRatio="xMidYMid meet">
<metadata>
Created by potrace 1.11, written by Peter Selinger 2001-2013
</metadata>
<g transform="translate(0.000000,719.000000) scale(0.100000,-0.100000)"
fill="#000000" stroke="none">
<path d="M10 4074 l0 -1474 1329 0 1330 0 0 478 c0 612 -2 562 17 537 15 -21
90 -109 109 -129 5 -6 53 -60 105 -121 52 -60 107 -123 121 -140 15 -16 64
-73 109 -125 46 -52 97 -111 114 -130 17 -19 58 -66 91 -105 33 -38 62 -72 65
-75 7 -7 122 -139 146 -167 18 -22 24 -23 191 -23 95 0 173 3 173 6 0 4 -42
52 -92 108 -51 55 -97 106 -103 112 -5 6 -42 46 -81 90 -40 43 -84 93 -99 109
-167 182 -300 327 -318 349 -10 12 -40 44 -65 72 -116 125 -217 237 -220 243
-2 6 17 28 176 200 54 58 124 134 157 170 33 35 67 72 75 81 8 9 58 63 110
120 52 58 113 123 135 146 22 23 74 79 115 125 41 45 82 90 90 98 8 9 26 28
39 44 l24 27 -159 -1 -159 0 -97 -112 c-54 -62 -108 -123 -120 -137 -13 -14
-54 -61 -93 -105 -38 -44 -72 -82 -75 -85 -3 -3 -39 -43 -80 -90 -41 -46 -87
-98 -102 -115 -14 -16 -35 -39 -45 -51 -31 -36 -136 -155 -192 -218 -29 -34
-56 -61 -58 -61 -3 0 -5 218 -5 484 1 267 -2 490 -6 495 -4 6 -8 22 -10 36 -2
14 -7 29 -13 35 -5 5 -9 15 -9 22 0 34 -102 217 -159 285 -15 19 -88 92 -121
122 -33 30 -144 99 -203 125 -243 109 -573 133 -832 60 -22 -6 -48 -11 -57
-12 -10 -1 -18 -5 -18 -9 0 -4 -7 -8 -16 -8 -23 0 -158 -64 -197 -94 -19 -14
-37 -26 -41 -26 -4 0 -13 -6 -21 -12 -7 -7 -32 -29 -56 -48 -74 -61 -115 -106
-181 -200 -53 -76 -100 -165 -91 -174 4 -3 1 -6 -5 -6 -7 0 -12 -9 -12 -20 0
-11 -5 -20 -11 -20 -6 0 -9 -9 -6 -20 3 -10 1 -20 -5 -22 -5 -2 -9 -14 -10
-28 -1 -14 -6 -31 -12 -38 -5 -8 -11 -28 -12 -45 -2 -18 -7 -50 -13 -72 -13
-52 -26 -297 -17 -321 4 -11 9 -51 11 -91 2 -40 7 -78 11 -84 4 -7 8 -28 10
-47 2 -18 8 -40 15 -48 6 -8 9 -14 6 -14 -7 0 32 -112 45 -127 6 -7 8 -13 5
-13 -13 0 81 -157 133 -224 33 -42 139 -146 149 -146 6 0 11 -4 11 -8 0 -4 21
-21 47 -38 25 -16 51 -34 57 -39 33 -31 220 -103 326 -125 191 -40 456 -27
665 34 89 26 282 130 293 158 2 4 9 8 16 8 7 0 25 13 41 30 16 16 31 28 33 25
4 -4 6 -260 3 -370 -1 -33 5 -29 -143 -91 -93 -40 -293 -90 -408 -104 -87 -10
-475 -7 -520 4 -14 4 -45 9 -70 12 -24 3 -47 7 -51 9 -3 2 -21 7 -40 10 -60
11 -235 73 -308 110 -165 83 -277 170 -424 333 -20 22 -37 45 -37 51 0 5 -4
11 -9 13 -23 9 -119 181 -160 287 -10 25 -21 55 -26 66 -4 11 -9 25 -10 30 -1
6 -3 12 -5 15 -1 3 -4 14 -6 25 -4 29 -12 60 -15 60 -1 0 -3 9 -5 20 -1 11 -6
38 -9 60 -13 84 -17 144 -17 270 0 111 7 260 12 260 2 0 12 72 13 98 1 9 5 17
10 17 4 0 5 5 2 10 -4 6 -2 16 3 23 5 7 8 20 7 30 -2 9 2 17 8 17 5 0 8 3 4 6
-5 5 23 96 50 164 4 8 7 17 7 20 3 18 121 220 128 220 5 0 7 4 3 9 -3 6 0 13
7 18 7 4 25 24 39 43 50 66 189 200 245 236 16 10 34 22 39 27 29 22 87 57 95
57 5 0 11 4 14 8 3 5 -181 9 -409 9 l-415 0 0 -1473z"/>
<path d="M4203 3650 l0 -1050 574 0 573 0 0 110 0 110 -445 0 c-245 0 -445 3
-446 8 -1 10 -1 692 0 715 1 16 27 17 391 17 l390 0 0 110 0 110 -390 0 -390
0 -1 23 c-1 29 -1 636 0 660 1 16 28 17 421 17 231 0 420 3 421 8 0 4 1 53 2
110 l2 102 -551 0 -551 0 0 -1050z"/>
<path d="M5520 4692 c0 -4 6 -16 13 -27 8 -11 49 -87 92 -170 113 -219 192
-369 240 -460 23 -44 68 -129 100 -190 70 -135 149 -284 204 -389 l42 -79 1
-389 0 -388 127 0 128 0 0 393 1 392 82 150 c45 83 100 184 122 225 23 41 53
98 68 125 15 28 107 199 205 380 97 182 191 354 207 383 l30 53 -137 -3 c-134
-3 -137 -3 -150 -28 -46 -82 -109 -199 -157 -290 -31 -58 -67 -125 -80 -150
-68 -123 -189 -349 -249 -466 l-67 -131 -22 56 c-13 31 -51 110 -85 176 -34
66 -123 239 -198 385 -75 146 -157 307 -184 358 l-48 92 -142 0 c-79 0 -143
-3 -143 -8z"/>
<path d="M4342 2369 c-79 -23 -141 -128 -144 -240 -3 -127 43 -212 130 -241
59 -20 162 -11 162 13 0 5 5 9 10 9 6 0 21 11 34 25 25 27 38 32 31 13 -2 -7
-6 -38 -9 -68 -12 -112 -70 -164 -176 -158 l-58 3 1 -30 c2 -37 12 -45 59 -45
65 0 133 20 170 50 34 29 72 90 73 120 0 8 3 20 6 25 3 6 5 90 5 188 -1 112 3
177 9 177 7 0 7 3 0 8 -5 4 -10 39 -10 77 l0 70 -43 3 c-41 3 -42 3 -32 -22
12 -33 -2 -41 -26 -14 -39 44 -116 59 -192 37z m123 -65 c14 -2 37 -14 50 -26
26 -22 51 -91 40 -108 -3 -6 -1 -10 5 -10 6 0 8 -5 5 -10 -4 -6 -8 -35 -9 -65
-3 -54 -13 -74 -59 -117 -24 -22 -102 -34 -121 -19 -7 6 -15 9 -18 6 -8 -9
-56 49 -70 85 -26 67 -12 170 31 220 25 29 97 64 114 53 4 -2 19 -6 32 -9z"/>
<path d="M4933 2361 c-18 -11 -39 -34 -48 -51 -8 -16 -17 -30 -19 -30 -2 0 -2
20 0 45 l3 45 -38 0 -39 0 1 -225 c1 -124 -2 -225 -6 -225 -4 0 -3 -9 3 -19 7
-14 19 -19 42 -18 l33 2 2 145 c2 80 5 154 7 165 2 11 5 25 5 31 2 21 56 74
81 80 28 6 35 6 65 2 14 -2 19 2 16 12 -2 8 -4 24 -5 35 -2 29 -61 32 -103 6z"/>
<path d="M5210 2353 c-53 -26 -95 -74 -106 -119 -4 -16 -10 -33 -13 -39 -9
-13 -7 -110 3 -155 16 -70 83 -141 148 -157 42 -10 123 -10 136 0 6 5 12 6 12
2 0 -4 7 -2 15 5 8 7 15 9 15 4 0 -5 4 -4 8 1 4 6 20 19 35 28 25 16 69 77 73
100 1 4 2 8 4 10 1 1 3 11 6 22 28 132 -27 269 -123 308 -60 23 -155 19 -213
-10z m158 -49 c62 -12 103 -78 105 -173 2 -116 -48 -181 -143 -187 -104 -5
-163 58 -164 176 -1 107 45 177 124 188 13 2 26 5 29 7 2 3 8 2 13 -1 4 -3 21
-8 36 -10z"/>
<path d="M6353 2360 c-23 -12 -45 -30 -48 -41 -9 -28 -22 -15 -20 21 2 28 0
30 -35 30 l-38 0 0 -361 -1 -360 37 3 37 3 0 157 -1 157 31 -35 c17 -19 36
-34 43 -34 6 0 12 -4 12 -8 0 -5 6 -9 13 -10 97 -8 127 -9 127 -2 0 4 12 11
26 14 39 10 90 70 105 123 41 149 -14 302 -126 348 -46 19 -119 16 -162 -5z
m107 -54 c0 2 12 -2 28 -10 31 -16 62 -48 66 -68 2 -7 6 -20 10 -29 10 -22 11
-107 2 -149 -6 -31 -61 -98 -84 -101 -38 -7 -91 -5 -107 3 -30 15 -85 80 -86
103 -6 87 -2 154 8 176 27 55 90 91 136 78 15 -4 27 -6 27 -3z"/>
<path d="M5669 2283 c-1 -48 -1 -91 -1 -94 1 -3 2 -52 3 -107 1 -56 5 -102 10
-102 5 0 9 -7 9 -15 0 -22 63 -80 91 -84 49 -7 124 -2 127 8 2 6 10 11 17 11
8 0 25 15 39 33 l26 32 0 -42 c0 -40 1 -41 30 -39 16 1 33 6 37 10 4 4 8 113
8 242 l0 234 -37 0 -38 0 -1 -47 c-3 -288 -3 -288 -29 -326 -38 -56 -93 -68
-162 -37 -42 20 -52 65 -53 245 l-1 160 -37 3 -37 3 -1 -88z"/>
</g>
</svg>
